<svg xmlns="http://www.w3.org/2000/svg" viewBox="0 0 512 512">
  <defs>
    <linearGradient id="bg" x1="0%" y1="0%" x2="100%" y2="100%">
      <stop offset="0%" style="stop-color:#667eea"/>
      <stop offset="100%" style="stop-color:#764ba2"/>
    </linearGradient>
  </defs>
  <!-- Background -->
  <rect width="512" height="512" rx="80" fill="url(#bg)"/>
  <!-- Syringe body -->
  <rect x="140" y="200" width="232" height="80" rx="10" fill="white"/>
  <!-- Syringe plunger -->
  <rect x="120" y="220" width="40" height="40" rx="5" fill="white"/>
  <rect x="80" y="230" width="50" height="20" rx="5" fill="white"/>
  <!-- Syringe needle -->
  <rect x="372" y="230" width="80" height="20" rx="2" fill="white"/>
  <polygon points="452,240 480,240 480,240 452,225 452,255" fill="white"/>
  <!-- Measurement lines -->
  <rect x="180" y="210" width="3" height="20" fill="#667eea"/>
  <rect x="220" y="210" width="3" height="20" fill="#667eea"/>
  <rect x="260" y="200" width="4" height="30" fill="#667eea"/>
  <rect x="300" y="210" width="3" height="20" fill="#667eea"/>
  <rect x="340" y="210" width="3" height="20" fill="#667eea"/>
  <!-- Drop -->
  <ellipse cx="256" cy="360" rx="40" ry="50" fill="white"/>
  <path d="M256 310 Q280 340 256 360 Q232 340 256 310" fill="white"/>
</svg>
